<svg width="23" height="22" viewBox="0 0 23 22" fill="none" xmlns="http://www.w3.org/2000/svg">
<path fill-rule="evenodd" clip-rule="evenodd" d="M11.5 20.25C16.6086 20.25 20.75 16.1086 20.75 11C20.75 5.89141 16.6086 1.75 11.5 1.75C6.39142 1.75 2.25 5.89141 2.25 11C2.25 11.4142 1.91421 11.75 1.5 11.75C1.08579 11.75 0.750001 11.4142 0.750001 11C0.750001 5.06298 5.56299 0.249999 11.5 0.249999C17.4371 0.25 22.25 5.06299 22.25 11C22.25 16.9371 17.4371 21.75 11.5 21.75C8.70625 21.75 6.16099 20.6836 4.25 18.9373L4.25 20.5C4.25 20.9142 3.91421 21.25 3.5 21.25C3.08579 21.25 2.75 20.9142 2.75 20.5L2.75 17C2.75 16.5858 3.08579 16.25 3.5 16.25L7 16.25C7.41421 16.25 7.75 16.5858 7.75 17C7.75 17.4142 7.41421 17.75 7 17.75L5.17535 17.75C6.83013 19.3013 9.05397 20.25 11.5 20.25Z" fill="white"/>
</svg>
